<?xml version="1.0" encoding="utf-8"?>
<!-- Generator: Adobe Illustrator 26.2.1, SVG Export Plug-In . SVG Version: 6.00 Build 0)  -->
<svg version="1.1" xmlns="http://www.w3.org/2000/svg" xmlns:xlink="http://www.w3.org/1999/xlink" x="0px" y="0px"
	 viewBox="0 0 1920 1080" style="enable-background:new 0 0 1920 1080;" xml:space="preserve">
<style type="text/css">
	.st0{fill:#F2F2F2;}
	.st1{fill:url(#SVGID_1_);}
	.st2{fill:url(#SVGID_00000073701536811014488100000004994172491552308157_);}
	.st3{fill:url(#SVGID_00000098929332930906393590000016950247620388007863_);}
	.st4{fill:#062C4C;}
	.st5{fill:url(#SVGID_00000124856015738029513030000007013291274982107802_);}
	.st6{fill:url(#SVGID_00000001637952031416561110000011415144845600821390_);}
	.st7{fill:#963232;}
	.st8{fill:url(#SVGID_00000121269165320548737340000000387233006856693137_);}
	.st9{fill:#414947;}
	.st10{fill:#9AC7FC;}
	.st11{fill:#FFFFFF;}
	.st12{fill:none;stroke:#FCFCFC;stroke-width:2;stroke-linecap:round;stroke-miterlimit:10;}
	.st13{fill:none;stroke:#2A3B7D;stroke-width:2;stroke-linecap:round;stroke-miterlimit:10;}
	.st14{fill:none;stroke:#FFFFFF;stroke-width:2;stroke-linecap:round;stroke-miterlimit:10;}
	.st15{fill:none;stroke:#FFFFFF;stroke-miterlimit:10;}
	.st16{fill:none;stroke:#FFFFFF;stroke-width:2;stroke-miterlimit:10;}
	.st17{fill:#C0E0FF;}
	.st18{fill:#E1E7FA;}
	.st19{fill:none;stroke:#062C4C;stroke-miterlimit:10;}
	.st20{fill:url(#SVGID_00000085972427927692671380000001206507124966170249_);}
	.st21{clip-path:url(#SVGID_00000178921763682629999040000010103069915748985243_);}
	.st22{clip-path:url(#SVGID_00000134227793135300608180000007213520536119599033_);fill:#062C4C;}
	.st23{clip-path:url(#SVGID_00000134227793135300608180000007213520536119599033_);fill:#E6002F;}
	.st24{clip-path:url(#SVGID_00000134227793135300608180000007213520536119599033_);fill:#61A1C1;}
	.st25{fill:url(#SVGID_00000155830485991949661730000006622324186751364492_);}
	.st26{clip-path:url(#SVGID_00000127725703413813368280000016407158793480256178_);}
	.st27{clip-path:url(#SVGID_00000080188599708794464870000013147135513980145846_);fill:#062C4C;}
	.st28{clip-path:url(#SVGID_00000080188599708794464870000013147135513980145846_);fill:#E6002F;}
	.st29{clip-path:url(#SVGID_00000080188599708794464870000013147135513980145846_);fill:#61A1C1;}
	.st30{fill:url(#SVGID_00000083078175920163177510000017442863143738541960_);}
	.st31{fill:url(#SVGID_00000010298746958612334270000000398797696612553602_);}
	.st32{fill:url(#SVGID_00000017480147265235784590000017694713407882752433_);}
	.st33{fill:url(#SVGID_00000094597935488374595990000009525465602712072116_);}
	.st34{fill:url(#SVGID_00000177477768733110340400000003399283346187435676_);}
	
		.st35{fill:url(#SVGID_00000171713324994050856700000002395946827276401828_);stroke:url(#SVGID_00000147178673267114370510000007445932288860854191_);stroke-miterlimit:10;}
	.st36{clip-path:url(#SVGID_00000070804966445000710370000009618452897651000727_);}
	.st37{clip-path:url(#SVGID_00000158002517455562265750000007924043082778535096_);fill:#062C4C;}
	.st38{clip-path:url(#SVGID_00000158002517455562265750000007924043082778535096_);fill:#E6002F;}
	.st39{clip-path:url(#SVGID_00000158002517455562265750000007924043082778535096_);fill:#61A1C1;}
	.st40{fill:none;stroke:#062C4C;stroke-width:3;stroke-miterlimit:10;}
	.st41{fill:url(#SVGID_00000132777083643282565270000016137903245502792368_);}
	.st42{fill:url(#SVGID_00000018198148443139355190000005956334693267500174_);}
	.st43{opacity:0.5;}
	.st44{clip-path:url(#SVGID_00000072247762176432461000000012801798121202555295_);}
	.st45{clip-path:url(#SVGID_00000097469403502699262580000010488829435153123261_);fill:#062C4C;}
	.st46{clip-path:url(#SVGID_00000097469403502699262580000010488829435153123261_);fill:#E6002F;}
	.st47{clip-path:url(#SVGID_00000097469403502699262580000010488829435153123261_);fill:#61A1C1;}
	.st48{fill:url(#SVGID_00000152254153554420312120000013956958104190341818_);}
	.st49{fill:url(#SVGID_00000086678171105841010610000015875134869442678657_);}
	.st50{fill:url(#SVGID_00000010290171819961340700000004644933714099166367_);}
	.st51{clip-path:url(#SVGID_00000144308309901024821470000017020785071993807523_);}
	.st52{clip-path:url(#SVGID_00000023985285961998290100000014234421151735794057_);fill:#062C4C;}
	.st53{clip-path:url(#SVGID_00000023985285961998290100000014234421151735794057_);fill:#E6002F;}
	.st54{clip-path:url(#SVGID_00000023985285961998290100000014234421151735794057_);fill:#61A1C1;}
	.st55{fill:url(#SVGID_00000091734285838712323220000011759101715241158330_);}
	.st56{fill:url(#SVGID_00000014628849518495589560000000501930514443384704_);}
	.st57{fill:url(#SVGID_00000137119435376170307650000000752274881397016973_);}
	.st58{fill:url(#SVGID_00000137849104247227668870000003001097376821024410_);}
	.st59{clip-path:url(#SVGID_00000063594405262857859740000013210788545291674804_);}
	.st60{clip-path:url(#SVGID_00000132788566477180578130000000989003164201700027_);fill:#062C4C;}
	.st61{clip-path:url(#SVGID_00000132788566477180578130000000989003164201700027_);fill:#E6002F;}
	.st62{clip-path:url(#SVGID_00000132788566477180578130000000989003164201700027_);fill:#61A1C1;}
	.st63{clip-path:url(#SVGID_00000140705866854028557070000012556995210459140260_);}
	.st64{clip-path:url(#SVGID_00000060015133886050970400000011070812924514681020_);fill:#062C4C;}
	.st65{clip-path:url(#SVGID_00000060015133886050970400000011070812924514681020_);fill:#E6002F;}
	.st66{clip-path:url(#SVGID_00000060015133886050970400000011070812924514681020_);fill:#61A1C1;}
	.st67{fill:url(#SVGID_00000002386263360139207610000011042018634034221713_);}
	.st68{opacity:0.7;clip-path:url(#SVGID_00000039848144525433370780000002081371829661449382_);}
	.st69{opacity:0.2;fill:none;stroke:#FFFFFF;stroke-width:0.5;stroke-miterlimit:10;}
	.st70{opacity:0.2381;fill:none;stroke:#FFFFFF;stroke-width:0.5;stroke-miterlimit:10;}
	.st71{opacity:0.2762;fill:none;stroke:#FFFFFF;stroke-width:0.5;stroke-miterlimit:10;}
	.st72{opacity:0.3143;fill:none;stroke:#FFFFFF;stroke-width:0.5;stroke-miterlimit:10;}
	.st73{opacity:0.3524;fill:none;stroke:#FFFFFF;stroke-width:0.5;stroke-miterlimit:10;}
	.st74{opacity:0.3905;fill:none;stroke:#FFFFFF;stroke-width:0.5;stroke-miterlimit:10;}
	.st75{opacity:0.4286;fill:none;stroke:#FFFFFF;stroke-width:0.5;stroke-miterlimit:10;}
	.st76{opacity:0.4667;fill:none;stroke:#FFFFFF;stroke-width:0.5;stroke-miterlimit:10;}
	.st77{opacity:0.5048;fill:none;stroke:#FFFFFF;stroke-width:0.5;stroke-miterlimit:10;}
	.st78{opacity:0.5429;fill:none;stroke:#FFFFFF;stroke-width:0.5;stroke-miterlimit:10;}
	.st79{opacity:0.581;fill:none;stroke:#FFFFFF;stroke-width:0.5;stroke-miterlimit:10;}
	.st80{opacity:0.619;fill:none;stroke:#FFFFFF;stroke-width:0.5;stroke-miterlimit:10;}
	.st81{opacity:0.6571;fill:none;stroke:#FFFFFF;stroke-width:0.5;stroke-miterlimit:10;}
	.st82{opacity:0.6952;fill:none;stroke:#FFFFFF;stroke-width:0.5;stroke-miterlimit:10;}
	.st83{opacity:0.7333;fill:none;stroke:#FFFFFF;stroke-width:0.5;stroke-miterlimit:10;}
	.st84{opacity:0.7714;fill:none;stroke:#FFFFFF;stroke-width:0.5;stroke-miterlimit:10;}
	.st85{opacity:0.8095;fill:none;stroke:#FFFFFF;stroke-width:0.5;stroke-miterlimit:10;}
	.st86{opacity:0.8476;fill:none;stroke:#FFFFFF;stroke-width:0.5;stroke-miterlimit:10;}
	.st87{opacity:0.8857;fill:none;stroke:#FFFFFF;stroke-width:0.5;stroke-miterlimit:10;}
	.st88{opacity:0.9238;fill:none;stroke:#FFFFFF;stroke-width:0.5;stroke-miterlimit:10;}
	.st89{opacity:0.9619;fill:none;stroke:#FFFFFF;stroke-width:0.5;stroke-miterlimit:10;}
	.st90{fill:none;stroke:#FFFFFF;stroke-width:0.5;stroke-miterlimit:10;}
	.st91{fill:url(#SVGID_00000165951035086159222360000010358895938652148404_);}
	.st92{clip-path:url(#SVGID_00000137850336722686268160000002004101351145525634_);}
	.st93{clip-path:url(#SVGID_00000003802504694346579610000008667943984189505178_);fill:#062C4C;}
	.st94{clip-path:url(#SVGID_00000003802504694346579610000008667943984189505178_);fill:#E6002F;}
	.st95{clip-path:url(#SVGID_00000003802504694346579610000008667943984189505178_);fill:#61A1C1;}
	
		.st96{fill:url(#SVGID_00000180356438412806608150000004194921296038328750_);stroke:url(#SVGID_00000125589399118010273360000010000395282462557836_);stroke-miterlimit:10;}
	.st97{opacity:0.7;clip-path:url(#SVGID_00000177450477020875328100000011946736159869991571_);}
	.st98{fill:url(#SVGID_00000059998401296993352350000004588338114427707807_);}
	.st99{clip-path:url(#SVGID_00000162349402354124241690000004952534769160702358_);}
	.st100{clip-path:url(#SVGID_00000141426553129779372340000002367287274032276627_);fill:#062C4C;}
	.st101{clip-path:url(#SVGID_00000141426553129779372340000002367287274032276627_);fill:#E6002F;}
	.st102{clip-path:url(#SVGID_00000141426553129779372340000002367287274032276627_);fill:#61A1C1;}
</style>
<g id="Layer_1">
	<linearGradient id="SVGID_1_" gradientUnits="userSpaceOnUse" x1="0.5315" y1="540" x2="1919.5" y2="540">
		<stop  offset="0" style="stop-color:#9AC7FC"/>
		<stop  offset="0.4984" style="stop-color:#98C6FC"/>
		<stop  offset="0.6778" style="stop-color:#91C3FA"/>
		<stop  offset="0.8058" style="stop-color:#86BDF8"/>
		<stop  offset="0.9085" style="stop-color:#75B5F4"/>
		<stop  offset="0.9961" style="stop-color:#5FABEF"/>
		<stop  offset="1" style="stop-color:#5EAAEF"/>
	</linearGradient>
	
		<linearGradient id="SVGID_00000104689205674428343740000007306265039500775056_" gradientUnits="userSpaceOnUse" x1="3.151308e-02" y1="540" x2="1920" y2="540">
		<stop  offset="0" style="stop-color:#F2F2F2"/>
		<stop  offset="0.4174" style="stop-color:#F0F1F2"/>
		<stop  offset="0.5678" style="stop-color:#E9EEF2"/>
		<stop  offset="0.6749" style="stop-color:#DEE8F2"/>
		<stop  offset="0.7616" style="stop-color:#CDE0F1"/>
		<stop  offset="0.8359" style="stop-color:#B7D5F1"/>
		<stop  offset="0.9015" style="stop-color:#9BC8F1"/>
		<stop  offset="0.9595" style="stop-color:#7CB8F0"/>
		<stop  offset="1" style="stop-color:#61ABF0"/>
	</linearGradient>
	
		<rect x="0.5" style="fill:url(#SVGID_1_);stroke:url(#SVGID_00000104689205674428343740000007306265039500775056_);stroke-miterlimit:10;" width="1919" height="1080"/>
	<g>
		<defs>
			
				<rect id="SVGID_00000005964559503631490620000004292247115667105418_" x="4.2" transform="matrix(-1 -1.224647e-16 1.224647e-16 -1 1924.1541 1074)" width="1915.8" height="1074"/>
		</defs>
		<clipPath id="SVGID_00000142861795233121221940000014676473301113706386_">
			<use xlink:href="#SVGID_00000005964559503631490620000004292247115667105418_"  style="overflow:visible;"/>
		</clipPath>
		<g style="opacity:0.7;clip-path:url(#SVGID_00000142861795233121221940000014676473301113706386_);">
			<path class="st69" d="M1444.9,1092.4c-125.1-6.4-250-39.9-356.1-106.3c-106.1-66.4-192.4-166.8-231.9-285.3
				c-26.2-78.4-31.7-162-47.8-243.1c-16.2-81.1-45.7-163.9-108.1-218.4c-56.1-49-132.3-69-206.7-75.4c-74.4-6.4-149.3-0.7-223.8-5.7
				s-151-22.2-209.7-68C1.9,44.2-34.5-35.7-12-106.7"/>
			<path class="st70" d="M-7.4-103.2C-30.4-32.4,5.7,47.8,64.2,94.1c58.5,46.3,134.8,64.1,209,70.5s149.1,1.3,221.7,12
				c75.3,11.1,143.7,41.7,202,94.5c61.7,55.8,94.6,136,114.4,213.5c19.8,77.5,30,156.1,58.7,230.7c43.1,112.1,129,208.2,234.4,272.5
				c105.5,64.3,228.6,98.4,350.8,107.9"/>
			<path class="st71" d="M-2.8-99.8C-26.3-29.1,9.5,51.4,67.8,98.1c58.3,46.7,134.4,65.2,208.3,73c73.9,7.8,149,3.6,219.6,18.4
				c76.4,16,136.9,57,197.3,113.5c61,57,97.3,134.7,120.7,208.7c23.4,74,38.2,147.4,69.5,218.2c46.7,105.6,132.1,197.5,236.9,259.8
				c104.8,62.3,226.2,97,345.4,109.6"/>
			<path class="st72" d="M1.8-96.4C-22.3-25.8,13.3,55,71.3,102.2c58,47.1,134,66.3,207.6,75.4c73.7,9.1,148.9,6.1,217.5,24.7
				c77.7,21,130.1,72.2,192.6,132.6c60.3,58.2,100,133.4,127,203.8c27,70.4,46.5,138.7,80.3,205.7c50.1,99.1,135.3,186.7,239.4,247
				c104.1,60.3,223.8,95.6,340.1,111.3"/>
			<path class="st73" d="M6.4-93C-18.2-22.5,17.1,58.6,74.9,106.2c57.8,47.6,133.5,67.4,206.9,77.9c73.4,10.5,148.8,8.8,215.4,31
				c79,26.3,123.3,87.3,187.9,151.6c59.7,59.4,102.7,132.1,133.3,198.9c30.6,66.9,54.7,129.9,91.2,193.2
				c53.4,92.5,138.4,176,241.9,234.2c103.5,58.2,221.4,94.2,334.8,112.9"/>
			<path class="st74" d="M11-89.6c-25.1,70.4,9.9,151.8,67.4,199.8c57.6,48,133.1,68.5,206.3,80.3c73.2,11.9,148.7,11.8,213.4,37.3
				c80.4,31.7,116.5,102.5,183.2,170.7c59.1,60.4,105.4,130.8,139.6,194.1c34.2,63.3,62.7,121.1,102,180.7
				c56.6,85.9,141.6,165.3,244.4,221.5s219,92.8,329.4,114.6"/>
			<path class="st75" d="M15.6-86.2c-25.7,70.3,9.1,152,66.4,200.4c57.3,48.4,132.7,69.6,205.6,82.8
				c72.9,13.2,148.7,15.1,211.3,43.6c81.9,37.4,109.8,117.6,178.5,189.7c58.6,61.5,108.1,129.5,145.9,189.2
				c37.8,59.8,70.7,112.2,112.8,168.2c59.6,79.3,144.7,154.6,246.9,208.7c102.2,54.2,216.6,91.4,324.1,116.2"/>
			<path class="st76" d="M20.1-82.8c-26.2,70.2,8.3,152.2,65.4,201c57.1,48.8,132.3,70.6,204.9,85.2c72.6,14.6,148.6,18.5,209.2,50
				c83.3,43.3,103.1,132.6,173.8,208.7c58.1,62.5,110.8,128.2,152.2,184.4c41.4,56.2,78.6,103.3,123.7,155.7
				c62.5,72.6,147.8,143.8,249.4,196c101.5,52.1,214.1,90,318.7,117.9"/>
			<path class="st77" d="M24.7-79.3C-2-9.2,32.2,73,89.1,122.2c56.9,49.2,131.8,71.7,204.2,87.7c72.4,16,148.4,22.1,207.1,56.3
				C585,315.5,596.8,413.8,669.5,494C727.1,557.5,783,620.8,828,673.5c45,52.6,86.4,94.5,134.5,143.2c65.2,66,151,133.1,251.9,183.2
				c100.9,50.1,211.7,88.5,313.4,119.5"/>
			<path class="st78" d="M29.3-75.9C2.1-5.9,36,76.6,92.6,126.2c56.6,49.6,131.4,72.8,203.5,90.2c72.1,17.3,148.1,25.8,205,62.6
				C587,334.6,591,441.6,665.6,525.8c57.1,64.5,116.2,125.5,164.8,174.6c48.6,49.1,94.1,85.6,145.3,130.7
				c67.7,59.5,154.1,122.4,254.3,170.5s209.3,87.1,308,121.2"/>
			<path class="st79" d="M33.9-72.5C6.1-2.6,39.8,80.2,96.2,130.2c56.4,50.1,131,73.9,202.8,92.6c71.8,18.7,147.8,29.6,202.9,68.9
				c87,62,83.2,177.6,159.8,265.9c56.7,65.4,118.9,124.2,171.2,169.8C885.1,773,934.4,804.3,989,845.7
				c70,53.1,157.3,111.7,256.8,157.7c99.6,46,206.9,85.7,302.7,122.8"/>
			<path class="st80" d="M38.5-69.1C10.2,0.7,43.6,83.8,99.7,134.2c56.1,50.5,130.5,75,202.1,95.1c71.6,20.1,147.4,33.5,200.9,75.2
				c87.9,68.6,76.7,192.6,155.1,284.9c56.3,66.3,121.6,122.9,177.5,164.9c55.8,42,109.1,68.2,167,105.8
				c72.3,46.8,160.4,100.9,259.3,144.9s204.5,84.3,297.3,124.5"/>
			<path class="st81" d="M43.1-65.7C14.2,4,47.4,87.4,103.3,138.3c55.9,50.9,130.1,76.1,201.4,97.5c71.3,21.4,146.9,37.5,198.8,81.6
				c88.7,75.3,70.1,207.5,150.4,304c55.9,67.2,124.3,121.6,183.8,160C897,819.8,954,841,1015.4,874.6
				c74.4,40.7,163.6,90.2,261.8,132.2c98.3,42,202.1,82.9,292,126.1"/>
			<path class="st82" d="M47.6-62.3C18.3,7.4,51.1,91,106.8,142.3c55.7,51.3,129.7,77.2,200.7,100c71,22.8,146.3,41.5,196.7,87.9
				c89.3,82.2,63.7,222.4,145.7,323c55.5,68.1,127,120.3,190.1,155.2c63,34.9,123.8,51.3,188.7,80.8
				c76.5,34.8,166.7,79.5,264.3,119.4c97.6,39.9,199.7,81.5,286.7,127.8"/>
			<path class="st83" d="M52.2-58.9c-29.9,69.5,2.7,153.4,58.1,205.1c55.4,51.7,129.3,78.3,200.1,102.5
				c70.8,24.2,145.6,45.6,194.6,94.2c89.8,89.1,57.2,237.2,141,342.1c55.2,69,129.7,119,196.4,150.3
				c66.7,31.3,131.1,43.1,199.5,68.3c78.6,29,169.8,68.8,266.8,106.7c96.9,37.9,197.3,80.1,281.3,129.5"/>
			<path class="st84" d="M56.8-55.4C26.4,14,58.7,98.1,113.9,150.3c55.2,52.1,128.8,79.4,199.4,104.9
				c70.5,25.5,144.9,49.6,192.5,100.5c90.1,96.2,50.8,252.1,136.3,361.1c54.8,69.9,132.4,117.7,202.7,145.4
				c70.3,27.8,138.4,35,210.3,55.8c80.6,23.3,173,58,269.3,93.9s194.8,78.6,276,131.1"/>
			<path class="st85" d="M61.4-52c-30.9,69.3,1.1,153.8,56.1,206.3c55,52.6,128.4,80.5,198.7,107.4c70.3,26.9,144,53.7,190.4,106.9
				c90.1,103.3,44.4,266.9,131.6,380.1c54.5,70.8,135.1,116.4,209,140.6c73.9,24.2,145.7,27,221.2,43.3
				c82.8,17.8,176.1,47.3,271.8,81.2c95.6,33.9,192.4,77.2,270.6,132.8"/>
			<path class="st86" d="M66-48.6c-31.5,69.2,0.3,153.9,55,206.9c54.7,53,128,81.6,198,109.8c70,28.3,143.1,57.7,188.3,113.2
				c90.1,110.4,38,281.7,126.9,399.2c54.2,71.6,137.8,115.1,215.3,135.7c77.5,20.6,153.1,19.2,232,30.8
				c85,12.5,179.3,36.6,274.3,68.4c95,31.8,190,75.8,265.3,134.4"/>
			<path class="st87" d="M70.6-45.2c-32,69.1-0.5,154.1,54,207.5c54.5,53.4,127.6,82.7,197.3,112.3
				c69.7,29.6,142.2,61.8,186.3,119.5c89.8,117.6,31.7,296.5,122.2,418.2c53.9,72.5,140.5,113.8,221.6,130.9
				c81.1,17.1,160.6,11.6,242.8,18.3c87.3,7.2,182.4,25.9,276.7,55.6c94.3,29.8,187.6,74.4,259.9,136.1"/>
			<path class="st88" d="M75.2-41.8c-32.5,69-1.3,154.3,53,208.1c54.3,53.8,127.1,83.7,196.6,114.7c69.5,31,141.2,65.8,184.2,125.8
				c89.4,124.8,25.4,311.3,117.5,437.3c53.6,73.3,143.2,112.5,227.9,126s168.1,4,253.7,5.8c89.8,2,185.6,15.1,279.2,42.9
				c93.7,27.8,185.2,73,254.6,137.7"/>
			<path class="st89" d="M79.7-38.4c-33.1,68.9-2.1,154.5,51.9,208.7c54,54.2,126.7,84.8,195.9,117.2
				c69.2,32.4,140.1,69.8,182.1,132.1c88.9,132,19.1,326.1,112.8,456.3c53.4,74.2,145.9,111.2,234.2,121.1
				c88.3,10,175.8-3.6,264.5-6.6c92.3-3.2,188.7,4.4,281.7,30.1c93,25.7,182.8,71.6,249.3,139.4"/>
			<path class="st90" d="M84.3-35c-33.6,68.8-2.9,154.7,50.9,209.3C189,229,261.5,260.3,330.4,294c68.9,33.7,139,73.7,180,138.5
				c88.3,139.2,12.9,340.8,108.1,475.4c53.1,75,148.6,109.8,240.5,116.3c91.9,6.4,183.5-11.1,275.3-19.1
				c95-8.3,191.8-6.3,284.2,17.4c92.4,23.7,180.4,70.2,243.9,141"/>
		</g>
	</g>
	<g>
		<rect x="1.3" width="1921.8" height="110.4"/>
	</g>
	
		<linearGradient id="SVGID_00000012433925355421335390000011439853518515771569_" gradientUnits="userSpaceOnUse" x1="1618" y1="117" x2="1776" y2="117">
		<stop  offset="0" style="stop-color:#C1272D"/>
		<stop  offset="9.234697e-02" style="stop-color:#B9292F"/>
		<stop  offset="0.4423" style="stop-color:#9F2E37"/>
		<stop  offset="0.7558" style="stop-color:#8F313B"/>
		<stop  offset="1" style="stop-color:#89323D"/>
	</linearGradient>
	<path style="fill:url(#SVGID_00000012433925355421335390000011439853518515771569_);" d="M1618,0v155.3c0,43.4,35.4,78.7,79,78.7
		s79-35.2,79-78.7V0H1618z"/>
	<g>
		<g>
			<defs>
				<rect id="SVGID_00000028288429250389921650000000826585847240146855_" x="1628.1" y="61.7" width="137.8" height="130"/>
			</defs>
			<clipPath id="SVGID_00000124132631875493611960000015129136146310845599_">
				<use xlink:href="#SVGID_00000028288429250389921650000000826585847240146855_"  style="overflow:visible;"/>
			</clipPath>
			<g style="clip-path:url(#SVGID_00000124132631875493611960000015129136146310845599_);">
				<defs>
					<rect id="SVGID_00000138537818986180016270000000278953620900261006_" x="1628.1" y="61.7" width="137.8" height="130"/>
				</defs>
				<clipPath id="SVGID_00000147200284017144033040000004664757551549880972_">
					<use xlink:href="#SVGID_00000138537818986180016270000000278953620900261006_"  style="overflow:visible;"/>
				</clipPath>
			</g>
			<g style="clip-path:url(#SVGID_00000124132631875493611960000015129136146310845599_);">
				<defs>
					<rect id="SVGID_00000181791975185046171240000011398745199491449013_" x="1628.1" y="61.7" width="137.8" height="130"/>
				</defs>
				<clipPath id="SVGID_00000086656508941741337300000005651703105103764670_">
					<use xlink:href="#SVGID_00000181791975185046171240000011398745199491449013_"  style="overflow:visible;"/>
				</clipPath>
				<path style="clip-path:url(#SVGID_00000086656508941741337300000005651703105103764670_);fill:#062C4C;" d="M1718.9,123.1
					l-50.5-47.6c-0.3-0.3-0.9-0.3-1.2,0l-19.7,18.6c-0.3,0.3-0.3,0.8,0,1.1l30.3,28.5l-30.3,30.7c-0.3,0.3-0.3,0.8,0,1.1l20.4,17.9
					c0.3,0.3,0.9,0.3,1.2,0l31.3-31.7l18.5-17.5C1719.3,123.9,1719.3,123.4,1718.9,123.1"/>
				<path style="clip-path:url(#SVGID_00000086656508941741337300000005651703105103764670_);fill:#E6002F;" d="M1719.8,117.6
					l-19.9-18.8c-0.3-0.3-0.3-0.8,0-1.1l19.7-18.6c0.3-0.3,0.9-0.3,1.2,0l19.9,18.8c0.3,0.3,0.3,0.8,0,1.1l-19.7,18.6
					C1720.6,117.9,1720.1,117.9,1719.8,117.6"/>
				<path style="clip-path:url(#SVGID_00000086656508941741337300000005651703105103764670_);fill:#61A1C1;" d="M1719.7,168.6
					l-19.9-18.8c-0.3-0.3-0.3-0.8,0-1.1l19.7-18.6c0.3-0.3,0.9-0.3,1.2,0l19.9,18.8c0.3,0.3,0.3,0.8,0,1.1l-19.7,18.6
					C1720.6,169,1720.1,169,1719.7,168.6"/>
			</g>
		</g>
	</g>
</g>
<g id="Layer_2">
</g>
<g id="Layer_3">
</g>
</svg>
